<?xml version="1.0" encoding="UTF-8" standalone="no"?>
<!DOCTYPE svg PUBLIC "-//W3C//DTD SVG 1.1//EN"
 "http://www.w3.org/Graphics/SVG/1.1/DTD/svg11.dtd">
<!-- Generated by graphviz version 14.1.4 (20260321.0153)
 -->
<!-- Pages: 1 -->
<svg width="1240pt" height="282pt"
 viewBox="0.00 0.00 1240.00 282.00" xmlns="http://www.w3.org/2000/svg" xmlns:xlink="http://www.w3.org/1999/xlink">
<g id="graph0" class="graph" transform="scale(1 1) rotate(0) translate(4 277.98)">
<polygon fill="white" stroke="none" points="-4,4 -4,-277.98 1236.23,-277.98 1236.23,4 -4,4"/>
<!-- prepare -->
<g id="node1" class="node">
<title>prepare</title>
<ellipse fill="none" stroke="black" cx="504.18" cy="-162" rx="38.56" ry="18"/>
<text xml:space="preserve" text-anchor="middle" x="504.18" y="-156.95" font-family="Times New Roman,serif" font-size="14.00">prepare</text>
</g>
<!-- train -->
<g id="node2" class="node">
<title>train</title>
<ellipse fill="none" stroke="black" cx="476.18" cy="-90" rx="27.81" ry="18"/>
<text xml:space="preserve" text-anchor="middle" x="476.18" y="-84.95" font-family="Times New Roman,serif" font-size="14.00">train</text>
</g>
<!-- prepare&#45;&gt;train -->
<g id="edge1" class="edge">
<title>prepare&#45;&gt;train</title>
<path fill="none" stroke="black" d="M497.41,-144.05C494.31,-136.32 490.57,-126.96 487.09,-118.27"/>
<polygon fill="black" stroke="black" points="490.43,-117.18 483.46,-109.19 483.93,-119.78 490.43,-117.18"/>
</g>
<!-- evaluate -->
<g id="node3" class="node">
<title>evaluate</title>
<ellipse fill="none" stroke="black" cx="504.18" cy="-18" rx="41.63" ry="18"/>
<text xml:space="preserve" text-anchor="middle" x="504.18" y="-12.95" font-family="Times New Roman,serif" font-size="14.00">evaluate</text>
</g>
<!-- prepare&#45;&gt;evaluate -->
<g id="edge2" class="edge">
<title>prepare&#45;&gt;evaluate</title>
<path fill="none" stroke="black" d="M507.84,-143.91C509.86,-133.57 512.16,-120.09 513.18,-108 514.53,-92.06 514.53,-87.94 513.18,-72 512.51,-63.97 511.26,-55.33 509.91,-47.4"/>
<polygon fill="black" stroke="black" points="513.36,-46.79 508.11,-37.58 506.47,-48.05 513.36,-46.79"/>
</g>
<!-- train&#45;&gt;evaluate -->
<g id="edge3" class="edge">
<title>train&#45;&gt;evaluate</title>
<path fill="none" stroke="black" d="M482.96,-72.05C486.06,-64.32 489.8,-54.96 493.28,-46.27"/>
<polygon fill="black" stroke="black" points="496.44,-47.78 496.91,-37.19 489.94,-45.18 496.44,-47.78"/>
</g>
<!-- data\raw\HAM10000_metadata.csv.dvc -->
<g id="node4" class="node">
<title>data\raw\HAM10000_metadata.csv.dvc</title>
<ellipse fill="none" stroke="black" cx="140.18" cy="-244.99" rx="140.18" ry="28.99"/>
<text xml:space="preserve" text-anchor="end" x="231.31" y="-248.19" font-family="Times New Roman,serif" font-size="14.00">data</text>
<text xml:space="preserve" text-anchor="middle" x="140.18" y="-231.69" font-family="Times New Roman,serif" font-size="14.00">awHAM10000_metadata.csv.dvc</text>
</g>
<!-- data\raw\HAM10000_metadata.csv.dvc&#45;&gt;prepare -->
<g id="edge4" class="edge">
<title>data\raw\HAM10000_metadata.csv.dvc&#45;&gt;prepare</title>
<path fill="none" stroke="black" d="M233.92,-223.13C306.25,-207.04 403.11,-185.49 459.07,-173.04"/>
<polygon fill="black" stroke="black" points="459.56,-176.52 468.56,-170.93 458.04,-169.68 459.56,-176.52"/>
</g>
<!-- data\raw\images.dvc -->
<g id="node5" class="node">
<title>data\raw\images.dvc</title>
<ellipse fill="none" stroke="black" cx="365.18" cy="-244.99" rx="66.47" ry="28.99"/>
<text xml:space="preserve" text-anchor="end" x="404.18" y="-248.19" font-family="Times New Roman,serif" font-size="14.00">data</text>
<text xml:space="preserve" text-anchor="middle" x="365.18" y="-231.69" font-family="Times New Roman,serif" font-size="14.00">awimages.dvc</text>
</g>
<!-- data\raw\images.dvc&#45;&gt;prepare -->
<g id="edge5" class="edge">
<title>data\raw\images.dvc&#45;&gt;prepare</title>
<path fill="none" stroke="black" d="M404.27,-221.22C425.2,-209.02 450.7,-194.16 470.71,-182.51"/>
<polygon fill="black" stroke="black" points="472.42,-185.56 479.3,-177.5 468.9,-179.51 472.42,-185.56"/>
</g>
<!-- data\raw\ISIC2018_Task3_Test_GroundTruth.csv.dvc -->
<g id="node6" class="node">
<title>data\raw\ISIC2018_Task3_Test_GroundTruth.csv.dvc</title>
<ellipse fill="none" stroke="black" cx="644.18" cy="-244.99" rx="194.28" ry="28.99"/>
<text xml:space="preserve" text-anchor="end" x="773.56" y="-248.19" font-family="Times New Roman,serif" font-size="14.00">data</text>
<text xml:space="preserve" text-anchor="middle" x="644.18" y="-231.69" font-family="Times New Roman,serif" font-size="14.00">awISIC2018_Task3_Test_GroundTruth.csv.dvc</text>
</g>
<!-- data\raw\ISIC2018_Task3_Test_GroundTruth.csv.dvc&#45;&gt;prepare -->
<g id="edge6" class="edge">
<title>data\raw\ISIC2018_Task3_Test_GroundTruth.csv.dvc&#45;&gt;prepare</title>
<path fill="none" stroke="black" d="M596.79,-216.57C577.29,-205.29 555.17,-192.5 537.45,-182.24"/>
<polygon fill="black" stroke="black" points="539.29,-179.26 528.88,-177.29 535.78,-185.32 539.29,-179.26"/>
</g>
<!-- data\raw\segmentations.dvc -->
<g id="node7" class="node">
<title>data\raw\segmentations.dvc</title>
<ellipse fill="none" stroke="black" cx="1138.18" cy="-244.99" rx="94.05" ry="28.99"/>
<text xml:space="preserve" text-anchor="end" x="1196.68" y="-248.19" font-family="Times New Roman,serif" font-size="14.00">data</text>
<text xml:space="preserve" text-anchor="middle" x="1138.18" y="-231.69" font-family="Times New Roman,serif" font-size="14.00">awsegmentations.dvc</text>
</g>
<!-- data\raw\test_images.dvc -->
<g id="node8" class="node">
<title>data\raw\test_images.dvc</title>
<ellipse fill="none" stroke="black" cx="941.18" cy="-244.99" rx="84.5" ry="28.99"/>
<text xml:space="preserve" text-anchor="end" x="992.93" y="-248.19" font-family="Times New Roman,serif" font-size="14.00">data</text>
<text xml:space="preserve" text-anchor="middle" x="941.18" y="-231.69" font-family="Times New Roman,serif" font-size="14.00">awtest_images.dvc</text>
</g>
<!-- data\raw\test_images.dvc&#45;&gt;prepare -->
<g id="edge7" class="edge">
<title>data\raw\test_images.dvc&#45;&gt;prepare</title>
<path fill="none" stroke="black" d="M880.32,-224.56C869.36,-221.43 857.98,-218.43 847.18,-216 743.48,-192.66 619.83,-176.32 552.96,-168.42"/>
<polygon fill="black" stroke="black" points="553.39,-164.94 543.05,-167.26 552.58,-171.9 553.39,-164.94"/>
</g>
</g>
</svg>
